<?xml version="1.0" encoding="utf-8"?>
<!DOCTYPE svg PUBLIC "-//W3C//DTD SVG 1.1//EN" "http://www.w3.org/Graphics/SVG/1.1/DTD/svg11.dtd">
<svg version="1.1" id="Layer_1" xmlns="http://www.w3.org/2000/svg" xmlns:xlink="http://www.w3.org/1999/xlink" x="0px" y="0px" viewBox="0 0 512 160" enable-background="new 0 0 512 160" xml:space="preserve">
<g>
	<path id="path5230" fill="#3284D6" fill-opacity="0.9412" d="M443.6,11c-4.4-0.1-1.8,7.9-9.1,8
		c-9.1,0-4.3-10.3-12.9-7.3c-7.9,2.8,2.2,7.7-4.2,13.3c-6.9,6.1-9.7-5.1-14.4,3c-4.3,7.4,6.4,4.5,5,13c-1.6,9.3-10.5,2.6-9.1,11.9
		c1.3,8.6,7.7-0.9,11.9,6.6c4.6,8.2-6.5,9,0.4,15.3c6.3,5.7,5.4-5.8,13.2-2.9c8.6,3.2,0.6,11.2,9.7,11.5c8.4,0.2,0.5-8,8.4-11
		c8.5-3.3,7.4,8.2,14.5,2.3c6.5-5.4-4.5-6.5-0.4-14c4.5-8.2,10.7,1.3,12.5-8c1.6-8.5-7.5-1.9-9-10.5c-1.6-9.3,9-6.2,4.6-14.5
		c-4-7.6-6.9,3.6-13.3-2c-7-6.1,3.1-10.8-5.4-14.2C445,11.2,444.3,11,443.6,11L443.6,11z M432.2,22.4c0.4,0,0.8,0,1.2,0
		c13,0,23.4,10.9,23.4,24.3c0,5.3-1.6,10.2-4.4,14.2c-1.6-2-3.3-4.4-3.3-6c3.5-7.5,1.7-16.8-4.8-22.3c-3.3-2.8-7.3-4.1-11.2-4.1
		c-1.5,0-3.1,0.3-4.6,0.7l9.6,8.1c2.4,2,2.8,5.6,0.8,8.1l-5.7,7.2c-1.9,2.5-5.4,2.9-7.8,0.8l-10-8.4c-0.6,6,1.6,12.2,6.5,16.3
		c3.1,2.6,6.7,3.9,10.4,4c2.8,0.8,5.1,2.8,6.8,5c-1.8,0.5-3.7,0.7-5.7,0.7c-13,0-23.4-10.9-23.4-24.3C410,33.7,419.8,23,432.2,22.4
		L432.2,22.4z"/>

		<path id="path5232" fill="#3284D6" fill-opacity="0.9412" d="
		M493.6,50.8c6.4,3-1.6,6.2,3.6,11.2c4.8,4.5,7.5-4,10.3,2.1c3,6.6-5.1,3.7-4.3,11c0.8,6.7,8.2,1.9,6.5,8.4
		c-1.8,7.1-6.2-0.5-10.1,5.7c-3.6,5.7,5,6.9-0.3,10.8c-5.8,4.3-4.4-4.5-11.2-2.3c-6.2,2-0.5,8.6-7,8.2c-7.1-0.5-0.5-6.4-7.1-9.2
		c-6-2.6-5.8,6.4-10.4,1.7c-5-5.1,3.6-5.3,0.4-11.8c-2.9-6-8.3,1.1-9-5.6c-0.7-7.3,6-1.7,7.6-8.9c1.5-6.6-7-4.7-3.3-10.2
		c4-6.1,5.7,2.6,11.3-1.8c5.2-4.1-2.4-8.3,3.9-10.1c6.8-2,2.6,5.8,9.7,6.1C490.9,56.3,487.7,48.1,493.6,50.8z"/>

		<path id="path5234" fill="#3284D6" fill-opacity="0.9412" d="
		M458.8,89.3c6.1,3.7-2.3,6,2.2,11.5c4.2,5.1,7.9-3,10,3.3c2.3,6.9-5.5,3.1-5.5,10.4c0,6.7,7.9,2.9,5.5,9.2
		c-2.6,6.8-6.1-1.2-10.7,4.4c-4.2,5.2,4.2,7.4-1.6,10.7c-6.2,3.6-3.9-5-10.9-3.6c-6.4,1.2-1.5,8.5-7.9,7.3c-7-1.4,0.2-6.4-6-10
		c-5.7-3.3-6.5,5.6-10.5,0.4c-4.4-5.7,4.2-4.8,1.7-11.7c-2.2-6.3-8.4,0.1-8.2-6.6c0.2-7.3,6.2-1,8.6-7.9c2.2-6.3-6.4-5.5-2.1-10.6
		c4.7-5.5,5.3,3.3,11.5-0.4c5.7-3.4-1.4-8.5,5-9.6c7-1.2,1.9,6.1,8.9,7.3C455.4,94.4,453.2,85.8,458.8,89.3z"/>
</g>
<g enable-background="new    ">

		<text transform="matrix(0.9722 0 0 1 0.7119 99.9048)" fill="#3284D6" font-family="'MotorOil1937M54'" font-size="113.0924" letter-spacing="-9.3">AMAKA</text>
</g>
<g enable-background="new    ">
	<text transform="matrix(0.9722 0 0 1 -2 143.957)" fill="#3284D6" font-family="'Sawasdee'" font-size="43.3042">BUILD AUTOMATOR</text>
</g>
</svg>
